<svg viewBox="0 0 16 16" version="1.1" xmlns="http://www.w3.org/2000/svg">
    <g id="Page-1" stroke="none" stroke-width="1" fill="none" fill-rule="evenodd">
        <path d="M8,16 C12.418278,16 16,12.418278 16,8 C16,3.581722 12.418278,0 8,0 C3.581722,0 0,3.581722 0,8 C0,12.418278 3.581722,16 8,16 Z M5.46875,5.46875 C5.7625,5.175 6.2375,5.175 6.528125,5.46875 L7.996875,6.9375 L9.465625,5.46875 C9.759375,5.175 10.234375,5.175 10.525,5.46875 C10.815625,5.7625 10.81875,6.2375 10.525,6.528125 L9.05625,7.996875 L10.525,9.465625 C10.81875,9.759375 10.81875,10.234375 10.525,10.525 C10.23125,10.815625 9.75625,10.81875 9.465625,10.525 L7.996875,9.05625 L6.528125,10.525 C6.234375,10.81875 5.759375,10.81875 5.46875,10.525 C5.178125,10.23125 5.175,9.75625 5.46875,9.465625 L6.9375,7.996875 L5.46875,6.528125 C5.175,6.234375 5.175,5.759375 5.46875,5.46875 L5.46875,5.46875 Z" id="Shape" fill="#DC2626" fill-rule="nonzero"></path>
    </g>
</svg>