<svg viewBox="0 0 854 833" version="1.1" xmlns="http://www.w3.org/2000/svg">
    <g id="Page-1" stroke="none" stroke-width="1" fill="none" fill-rule="evenodd">
        <g id="Group">
            <rect id="Rectangle" class="f" x="0" y="0" width="854" height="833" rx="60"></rect>
            <path d="M699.639584,438.344502 C713.298632,459.16448 721.45,484.586769 721.45,515.926314 C720.568771,631.641558 624.294511,710.1 417.205714,710.1 C287.665062,710.1 145.34659,670.870779 133.45,521.186098 L133.45,513.734737 L327.540671,513.734737 L284.580761,639.750391 L426.23831,541.786918 L567.89586,639.750391 L531.104552,531.486508 C525.376564,520.309467 510.61598,514.173053 510.61598,514.173053 C433.288142,471.437309 151.074578,494.668021 151.074578,305.754119 C151.074578,163.520798 301.103803,122.1 418.747864,122.1 C541.899607,122.1 686.42115,149.713865 699.419277,297.20697 L699.419277,302.905069 L480.874504,302.905069 L426.678925,144.234924 L372.483346,302.905069 L197.339097,302.905069 L295.155508,369.967313 C323.795448,358.571114 354.418153,353.530488 385.040858,350.243123 C417.866635,346.736601 450.91272,346.079128 483.958805,348.270704 C511.717516,350.023966 539.25592,353.968804 566.353709,360.324376 C590.807812,366.022475 615.702529,372.378047 637.953559,384.431718 C662.848277,398.019493 684.658692,415.332948 699.639584,438.344502 Z" id="Path" class="g" fill-rule="nonzero"></path>
        </g>
    </g>
    <style>
    .f {
      fill: transparent;
    }
    .g {
      fill: #000;
    }

    @media (prefers-color-scheme: dark) {
      .f {
        fill: #fff;
      }
      .g {
        fill: #000;
      }
    }
</style>
</svg>

