<svg viewBox="0 0 854 833" version="1.1" xmlns="http://www.w3.org/2000/svg">
  <path d="M727.876939,441.15218 C742.952997,464.132054 751.95,492.191688 751.95,526.782445 C750.977351,654.502162 644.715455,741.1 416.142956,741.1 C273.163563,741.1 116.080761,697.801081 102.95,532.587887 L102.95,524.363511 L317.175927,524.363511 L269.759292,663.452218 L426.112608,555.325867 L582.465924,663.452218 L541.857831,543.956877 C535.535613,531.620313 519.243743,524.847298 519.243743,524.847298 C433.893799,477.678084 122.402979,503.318785 122.402979,294.806672 C122.402979,137.817853 287.996459,92.1 417.845092,92.1 C553.77278,92.1 713.287205,122.578569 727.633777,285.372829 L727.633777,291.662057 L486.416842,291.662057 L426.598932,116.531234 L366.781023,291.662057 L173.467048,291.662057 L281.431079,365.681439 C313.042169,353.102982 346.84172,347.539433 380.64127,343.911032 C416.872443,340.040738 453.346778,339.315058 489.821113,341.733992 C520.459554,343.669139 550.854833,348.02322 580.763788,355.038129 C607.754796,361.327357 635.232128,368.342266 659.791514,381.646403 C687.268846,396.643794 711.341907,415.753373 727.876939,441.15218 Z" id="Path" class="g" fill-rule="nonzero"></path>
</svg>

