<svg viewBox="0 0 16 16" version="1.1" xmlns="http://www.w3.org/2000/svg">
    <g id="Page-1" stroke="none" stroke-width="1" fill="none" fill-rule="evenodd">
        <path d="M8,16 C12.418278,16 16,12.418278 16,8 C16,3.581722 12.418278,0 8,0 C3.581722,0 0,3.581722 0,8 C0,12.418278 3.581722,16 8,16 Z M11.53125,6.53125 L7.53125,10.53125 C7.2375,10.825 6.7625,10.825 6.471875,10.53125 L4.471875,8.53125 C4.178125,8.2375 4.178125,7.7625 4.471875,7.471875 C4.765625,7.18125 5.240625,7.178125 5.53125,7.471875 L7,8.940625 L10.46875,5.46875 C10.7625,5.175 11.2375,5.175 11.528125,5.46875 C11.81875,5.7625 11.821875,6.2375 11.528125,6.528125 L11.53125,6.53125 Z" id="Shape" fill="#15803D" fill-rule="nonzero"></path>
    </g>
</svg>